<svg enable-background="new 0 0 559 55" viewBox="0 0 559 55" xmlns="http://www.w3.org/2000/svg"><path d="m540.2 55h-532.8c-4.5 0-7.6-3.6-6.9-8.1l5.8-36.3c1-5.8 6.6-10.6 12.5-10.6h532.8c4.5 0 7.6 3.6 6.9 8.1l-5.8 36.3c-1 5.8-6.6 10.6-12.5 10.6" fill="#f5f5f6"/><path d="m518.7 16.9c-.3.4-.6.8-.8 1.2-1.5 2.3-2.9 4.6-4.4 6.8-2.2 3.4-4.4 6.7-6.5 10.1-.1.2-.2.5-.6.5-.2-.9.5-1.8.2-2.8-.5 0-.9-.1-1.4-.1-3.2 0-6.4 0-9.5 0-.4 0-.9.1-1.4-.2.3-1.7.7-3.4 1-5.1.4-1.8.7-3.5 1.1-5.3.4-1.7.8-3.4 1.1-5.3-1.2 0-2.4 0-3.5 0s-2.3-.1-3.5.1c-1.4 6.6-2.8 13.2-4.2 19.7-.1.3-.1.5-.1.9.4 0 .7.1 1 .1h24.6c.3 0 .6-.1.9-.1.7-1.1 1.3-2.2 1.9-3.3h3 3c1 0 1.9-.1 2.9.1.2 1.1.4 2.1.6 3.2h3.6c1.2 0 2.5.1 3.7-.1 0-.4-.1-.6-.1-.9-1.4-6.5-2.8-13-4.3-19.5l-.1-.1-.1-.1h-8.1z" fill="#fff"/><path d="m513.6 6.6h24.1 1.8c3.2.2 5.6 2.7 5.7 5.9 0 .6 0 1.2-.1 1.8-.8 4.6-1.7 9.1-2.5 13.7-.6 3.3-1.2 6.5-1.8 9.8-.9 4.7-3.6 7.6-8.1 9-1 .3-2.1.4-3.1.4-1.2 0-2.5 0-3.7 0-14.8 0-29.5 0-44.3 0-.8 0-1.6-.1-2.3-.1-4.1-.5-6-4.1-5.5-7.4.4-2.6.9-5.2 1.4-7.7.7-3.8 1.4-7.6 2.1-11.4.3-1.7.7-3.4 1-5.1.4-2 1.3-3.7 2.7-5.2 1.5-1.6 3.2-2.7 5.4-3.3.9-.2 1.8-.3 2.7-.3h9 15.5zm5.1 10.3c-.3.4-.6.8-.8 1.2-1.5 2.3-2.9 4.6-4.4 6.8-2.2 3.4-4.4 6.7-6.5 10.1-.1.2-.2.5-.6.5-.2-.9.5-1.8.2-2.8-.5 0-.9-.1-1.4-.1-3.2 0-6.4 0-9.5 0-.4 0-.9.1-1.4-.2.3-1.7.7-3.4 1-5.1.4-1.8.7-3.5 1.1-5.3.4-1.7.8-3.4 1.1-5.3-1.2 0-2.4 0-3.5 0s-2.3-.1-3.5.1c-1.4 6.6-2.8 13.2-4.2 19.7-.1.3-.1.5-.1.9.4 0 .7.1 1 .1h24.6c.3 0 .6-.1.9-.1.7-1.1 1.3-2.2 1.9-3.3h3 3c1 0 1.9-.1 2.9.1.2 1.1.4 2.1.6 3.2h3.6c1.2 0 2.5.1 3.7-.1 0-.4-.1-.6-.1-.9-1.4-6.5-2.8-13-4.3-19.5l-.1-.1-.1-.1h-8.1z" fill="#e20613"/><g fill="#1c1c1c"><path d="m205.1 37.3c-1.9 0-3.6 0-5.4 0-.3-.4-.2-.8-.2-1.2 0-3.4 0-6.8 0-10.2 0-.5 0-1-.1-1.5-.6 1.3-.9 2.8-1.3 4.2-.4 1.5-.8 2.9-1.2 4.4-.4 1.4-.8 2.8-1.1 4.2-1 .2-2.4.3-4.5.1-.3-.3-.3-.8-.5-1.2-.9-3.5-1.8-6.9-2.8-10.4-.1-.4-.3-.9-.5-1.3-.2 1.4-.1 2.8-.1 4.2v4.3 4.3l-.5.2c-1.5 0-3 0-4.6 0l-.5-.1-.1-.7c-.1-4.7 0-17.6.1-19 1.4-.2 2.8-.1 4.2-.1h4.3c.6 1.9 1 3.8 1.4 5.7.5 1.8.9 3.6 1.4 5.5.4-.3.4-.7.5-1 .7-2.9 1.5-5.8 2.2-8.7.1-.4.2-.9.4-1.3 1-.2 5.9-.3 8.3-.1.3.3.2.8.2 1.2v13.5 4c.5.2.4.5.4 1"/><path d="m377.1 17.5h5.9c.3.4.5.8.8 1.3 1.6 2.8 3.1 5.5 4.7 8.3l.5.8c.3-.2.2-.5.2-.7 0-2.7 0-5.4-.1-8.1 0-.5 0-.9 0-1.3 1.1-.2 4.5-.2 5.7 0v.8c.1 7.6.1 17.4-.1 18.7-.9.2-3.4.3-5.7.1-.8-1.1-1.4-2.3-2.1-3.5-.7-1.1-1.3-2.3-2-3.5s-1.3-2.4-2.2-3.7c-.2 1.3-.1 2.5-.1 3.6v3.6c0 1.1.1 2.3 0 3.5-1.9.1-3.7 0-5.6 0 0-.3-.1-.6-.1-.8 0-6.1 0-12.1 0-18.2.1-.3.1-.6.2-.9"/><path d="m356 17.5h5.9c.3.4.5.8.8 1.3 1.6 2.8 3.2 5.6 4.8 8.4.1.3.2.6.7.6 0-1.2 0-2.3 0-3.4s0-2.2 0-3.3-.1-2.3 0-3.4c1-.2 4.5-.2 5.7 0l.1.6c.1 5.4.1 17.6-.1 18.9-.9.2-3.4.3-5.7.1-.8-1.1-1.4-2.3-2.1-3.5-.7-1.1-1.3-2.3-2-3.5s-1.3-2.4-2.2-3.7c-.3.8-.1 1.5-.1 2.2v2.1 2.2 2.1c0 .7.1 1.4-.1 2.1-1.9.1-3.7 0-5.6 0 0-.3-.1-.6-.1-.8 0-6.1 0-12.1 0-18.2 0-.2 0-.5 0-.8"/><path d="m312.4 37.2c-.1-1.5-.1-18.5 0-19.6l.8-.2h8.4c1 0 1.9.2 2.9.4 3.5.9 5.5 3.2 6.4 6.5.6 2.2.5 4.5-.1 6.7-1.1 3.4-3.3 5.5-6.9 6-.7.1-1.5.2-2.2.2-2.9 0-5.7 0-8.6 0zm6-4.9c1.2.1 2.4.1 3.5-.1 1.3-.2 2.2-1 2.8-2.2.7-1.6.7-3.2.1-4.8-.4-1-1.1-1.8-2.1-2.2-1.3-.6-2.8-.6-4.1-.4-.3 1-.3 7.9-.2 9.7"/><path d="m125.4 37.3v-19.7l.8-.1h8.4c1.1 0 2.1.2 3.1.5 2.6.7 4.4 2.4 5.6 4.8.5 1.1.8 2.2.9 3.4.1 1.5.1 3-.3 4.5-1 3.6-3.2 5.8-7 6.4-.7.1-1.5.2-2.2.2-2.9 0-5.7 0-8.6 0-.1-0-.3-0-.7-0m6.2-5c1.2 0 2.3.1 3.4-.1 1.3-.2 2.3-1 2.8-2.2.6-1.6.7-3.1.1-4.7-.4-1.2-1.3-2.1-2.6-2.5-1.2-.4-2.4-.4-3.7-.2l-.1.7c-.2 3.1-.1 7.8.1 9"/><path d="m100.2 28.1.6.4c.8.5 1.3 1.3 1.6 2.2.3 1.1.5 2.1.6 3.2s.2 2.2.4 3.3c-1 .2-4.5.2-5.8 0-.2-.6-.3-1.2-.4-1.8-.1-.9-.2-1.7-.3-2.6-.2-1.5-1-2.3-2.6-2.4-.9-.1-1.7-.1-2.6-.1l-.5.2c-.2 1.2-.1 2.3-.1 3.5v3.3c-1 .2-4.4.3-5.9.1l-.1-.6c0-6.1 0-12.1 0-18.2 0-.3 0-.5.1-.8.4 0 .7-.1 1-.1h9.4c.9 0 1.7.1 2.6.3 2.7.5 4.5 2.5 4.7 5.2.1 1.8-.5 3.3-1.9 4.5-.3 0-.5.2-.8.4m-9.1-2.2c1 .2 3.6.2 4.2.1l.4-.1c.8-.3 1.2-.9 1.3-1.8 0-.9-.4-1.5-1.2-1.8-.4-.1-.8-.2-1.2-.2-.9 0-1.8 0-2.8 0l-.7.1z"/><path d="m398.2 17.5c.4 0 .7-.1 1-.1 7.8-.1 14.3 0 15.3.1.2 1.1.2 3.3 0 4.5-.4.3-.9.2-1.3.2-2.5 0-5 0-7.5 0-.5 0-.9 0-1.4 0-.3.8-.2 1.5-.1 2.2.4.3.9.2 1.3.2h6.8c.4 0 .8 0 1.2.1.2 1 .3 2.6.1 4.3-.2.3-.6.2-.9.2-2.3 0-4.6 0-6.9 0h-1.4c-.3 1-.2 1.9-.1 2.9.4 0 .8.1 1.1.1h8 1.3c.3 1 .3 3.5.1 4.8l-.4.1c-5.3 0-10.7 0-16.1 0-.1-.3-.1-.6-.1-.8 0-6.1 0-12.1 0-18.2z"/><path d="m353.6 27.4c0 1.5-.3 3-.9 4.5-1.2 3.2-3.6 5.1-6.9 5.8-1.8.4-3.7.3-5.5-.2-3.5-1-5.7-3.4-6.6-6.9-.6-2.4-.6-4.8.2-7.1 1.2-3.5 3.6-5.6 7.2-6.3 1.8-.4 3.6-.4 5.3.1 3.7 1.1 5.8 3.6 6.7 7.2.3 1 .3 1.9.5 2.9m-6.2 0c0-1.3-.2-2.5-.8-3.7-.4-.8-1-1.4-1.9-1.7-1.8-.6-3.6.1-4.5 1.7-.4.7-.6 1.5-.7 2.4-.2 1.4 0 2.8.5 4.2.4 1 1 1.8 2.1 2.3 1.9.8 3.9 0 4.7-1.9.4-1 .5-2.2.6-3.3"/><path d="m267.8 17.5h16.2c.3.8.2 1.6.2 2.3 0 .8.1 1.6-.1 2.4-.4 0-.8.1-1.1.1-2.6 0-5.2 0-7.7 0-.4 0-.9 0-1.4.1-.2.8-.1 1.4-.1 2.2.4.1.7.1 1 .1h6.9 1.4c.2.8.1 1.5.1 2.2v2.3c-.3 0-.6.1-1 .1-2.3 0-4.6 0-6.9 0-.5 0-.9 0-1.4 0-.2.5-.1 1-.2 1.4v1.4c.4.1.7.1 1 .1h8.2c.5 0 .9 0 1.4.1.2 1.6.1 3.2.1 4.8-.3.1-.6.1-.8.1-5 0-10.1 0-15.1 0h-.6l-.1-.8c0-6.1 0-12.2 0-18.2-.1-.1-.1-.4 0-.7"/><path d="m37 37.3-.1-.3c0-6.3 0-12.6 0-18.9l.1-.5c1.8-.2 3.6 0 5.4-.1h5.4 5.4c.4.8.2 1.6.2 2.3 0 .8.1 1.6-.1 2.4-.4 0-.7.1-1.1.1-2.6 0-5.2 0-7.7 0-.5 0-.9 0-1.4.1-.2.7-.1 1.4-.1 2 .3.4.6.3 1 .3h6.9 1.3c.3.9.3 2.6.1 4.5-.3 0-.6.1-.9.1-2.3 0-4.6 0-6.9 0-.5 0-.9 0-1.4 0-.3.5-.1.9-.2 1.4v1.3c.3.4.7.3 1 .3h8.2 1.3c.2 1 .3 2.9.1 4.8l-.6.1c-5.2 0-10.3 0-15.5 0z"/><path d="m112.1 29.3c-.1 1.1-.1 2 0 2.9.4 0 .8.1 1.1.1h7.9 1.4c.3.5.2 1.1.2 1.6v1.5c0 .5.1 1.1-.1 1.7l-.7.1c-4 .1-14.6 0-15.7-.1l-.1-.1v-.1c0-6.2 0-12.4 0-18.6v-.8l.7-.1h15.1l.5.1c.2 1 .3 3.2.1 4.6-.3 0-.6.1-.9.1-2.6 0-5.3 0-7.9 0-.5 0-.9 0-1.3 0-.3 1-.3 1-.1 2.3.7.2 1.5.1 2.3.1h2.2 2.4 2.3l.2.5v3.9c-.3 0-.6.1-.9.1-2.3 0-4.6 0-6.9 0h-1.8z"/><path d="m443 17.5h16.2c.3.8.2 1.6.2 2.3 0 .8.1 1.6-.1 2.4-.4 0-.8.1-1.2.1-2.6 0-5.2 0-7.7 0-.4 0-.9 0-1.4.1-.2.8-.1 1.4 0 2.2.3 0 .6.1.9.1h6.9 1.4c.2.8.1 1.5.1 2.2v2.3c-.3 0-.6.1-1 .1-2.3 0-4.6 0-6.9 0-.5 0-.9 0-1.4 0-.2.5-.1 1-.2 1.4v1.3c.4.4.8.3 1.1.3h8c.5 0 .9 0 1.4.1.2 1.6.1 3.2.1 4.8-.3.1-.6.1-.8.1-5 0-10.1 0-15.1 0h-.6l-.1-.8c0-6.1 0-12.2 0-18.2.1-.2.1-.5.2-.8"/><path d="m208 17.5h5.7c.3.4.2.8.2 1.1v10.8c0 .6 0 1.2.2 1.8.3.8.7 1.3 1.5 1.5.9.3 1.7.3 2.6.1.8-.2 1.3-.7 1.5-1.4.2-.6.3-1.3.3-1.9 0-3.5 0-6.9 0-10.4v-1.4c.3-.1.6-.1.8-.1h4.4l.7.1v1 10.9c0 1-.1 2-.3 3-.7 2.8-2.6 4.5-5.4 5.1-2.2.5-4.4.5-6.6 0-1.9-.4-3.4-1.3-4.5-2.9-.5-.7-.9-1.5-1-2.4s-.2-1.7-.3-2.6c0-3.8 0-7.5 0-11.3.2-.4.2-.7.2-1"/><path d="m246.8 17.6c1.1-.2 4.5-.2 5.8 0 .2.3.1.7.1 1.1v10.8c0 .6 0 1.2.2 1.8.3.7.7 1.3 1.5 1.5.9.3 1.7.3 2.6.1.8-.2 1.3-.7 1.5-1.5.2-.6.3-1.3.3-1.9 0-3.5 0-6.9 0-10.4 0-.5 0-.9 0-1.3l.3-.2h5.6l.1.8v11.3c0 .9-.1 1.8-.3 2.7-.6 2.4-2.1 4.1-4.4 4.9-2.9.9-5.8.9-8.7 0-2.4-.8-3.9-2.5-4.4-4.9-.2-.8-.3-1.7-.3-2.6 0-3.9 0-7.7 0-11.6z"/><path d="m82.6 24.7c-1.1.2-4.5.2-5.7 0l-.3-.9c-.9-2.3-3.8-2.4-5.2-1.1-.7.7-1.1 1.5-1.3 2.4-.4 1.5-.4 3.1 0 4.6.2.9.6 1.6 1.2 2.3 1.3 1.3 4.2 1.5 5.2-1.1.1-.4.3-.8.4-1.1 1.1-.2 4.7-.2 5.9 0 .1.5 0 1.1-.1 1.6-.8 3.1-2.7 5.1-5.8 6.1-2.1.6-4.2.6-6.3 0-3.5-1.1-5.6-3.5-6.5-6.9-.6-2.3-.6-4.6.2-6.8 1.2-3.6 3.7-5.8 7.5-6.6 2.1-.4 4-.2 5.9.6 2.7 1.2 4.3 3.2 5 6l.1.7z"/><path d="m166.7 22.7c-.2.6-.1 1.1-.1 1.6v11.6c0 .4.1.9-.2 1.4l-.5.1c-1.7 0-3.4 0-5 0-.4-.3-.3-.7-.3-1.1 0-4 0-7.9 0-11.9v-1.6c-.3-.1-.6-.1-.8-.1-1.2 0-2.3 0-3.5 0-.4 0-.7 0-1.1 0-.3-.6-.1-1.1-.2-1.7 0-.6 0-1.1 0-1.7 0-.5 0-1.1 0-1.7l.7-.1h15.6l.6.1c.2 1.1.2 3.8 0 5l-.8.1c-1.2 0-2.4 0-3.6 0-.2-.1-.5 0-.8 0"/><path d="m233.4 22.7c-1.9 0-3.7 0-5.4-.1-.2-.6-.1-1.1-.1-1.7s0-1.1 0-1.7c0-.5 0-1.1 0-1.7l.7-.1h15.6.6c.2 1.2.2 3.9 0 5-1.7.2-3.5 0-5.2.1-.3.4-.2.8-.2 1.2v11.9 1.4c-1 .3-2 .1-2.9.1-1 0-1.9 0-2.8 0-.4-.4-.3-.7-.3-1.1 0-4 0-7.9 0-11.9z"/><path d="m34.3 37.2-.4.1c-4.7 0-9.5 0-14.3 0-.1-.3-.1-.6-.1-.8 0-6.1 0-12.1 0-18.2v-.6c1-.2 4.3-.2 5.8-.1.2.4.1.8.1 1.2v11.9 1.3c.3.3.7.3 1 .3h6.5c.4 0 .8 0 1.2.1.3.8.4 3.5.2 4.8"/><path d="m440.5 37.2c-1.3.1-11.6.2-14.2.1l-.6-.1-.1-.6c-.1-2.8 0-17.9.1-19.1.6-.2 1.2-.1 1.9-.1h1.9 1.9c.4.4.2.8.2 1.2v11.9 1.3c.3.4.6.3.9.3h6.4 1.4c.3.6.2 1.1.2 1.7v1.7z"/><path d="m293.1 32.1c1.1.1 2.1.1 3 .1h2.8 2.8l.2.3c.1 1.6 0 3.1 0 4.7-.3 0-.6.1-.8.1-4.4 0-8.8 0-13.3 0-.2 0-.4 0-.7-.1-.1-2.2 0-4.4-.1-6.5 0-2.2 0-4.4 0-6.6v-6.5c1-.3 2-.1 2.9-.1h2.8c.4.4.3.7.3 1.1v11.9 1.6z"/><path d="m152.7 17.5c.2 1.3.2 18.5 0 19.7-.9.2-4.3.2-5.8.1l-.1-.6c0-6.1 0-12.2 0-18.4v-.6l.4-.2z"/><path d="m114.4 11.7h5.4l-.4.5c-1.2 1-2.4 1.9-3.5 2.9-.5.4-.9.5-1.5.5-.8-.1-1.6.1-2.5-.1.3-.8 1.3-2.4 2.5-3.8"/></g><path d="m521.7 22.4c.5 2.5.8 4.7 1.1 7l-.1.4c-1.1.2-3.9.2-5.2 0v-.3c1.3-2.2 2.6-4.5 3.9-6.7z" fill="#e20613"/></svg>