<?xml version="1.0" encoding="UTF-8"?>
<svg id="Capa_1" data-name="Capa 1" xmlns="http://www.w3.org/2000/svg" viewBox="0 0 1211.41 576.39">
  <defs>
    <style>
      .cls-1 {
        fill-rule: evenodd;
      }

      .cls-1, .cls-2 {
        fill: #fff;
      }

      .cls-3 {
        fill: #f9461c;
      }
    </style>
  </defs>
  <rect class="cls-3" x="0" width="576.39" height="576.39"/>
  <rect class="cls-3" x="635.01" y="0" width="576.39" height="576.39"/>
  <path class="cls-2" d="M120.94,255.94c-3.64-3.45-8.75-6.43-16.03-7.87-13.87-3.07-34.25-4.65-34.25-13.43,0-6.43,8.04-7,13.01-7,3.78,0,7.13.72,9.62,2.3,2.49,1.63,3.92,4.12,3.92,8.06h27.98c-.43-8.82-3.49-15.25-8.23-19.81-8.23-7.91-21.48-10.26-34.35-10.26-11.72,0-25.83,2.49-34.44,10.26-4.78,4.27-7.85,10.22-7.85,18.18,0,9.54,3.44,15.49,8.8,19.47,8.71,6.57,22.39,7.91,34.2,10.93,5.36,1.29,14.83,2.64,14.83,9.83,0,1.73-.48,3.17-1.24,4.36-2.54,3.98-8.56,5.47-13.01,5.47s-8.42-1.06-11.24-3.21c-.86-.67-1.63-1.39-2.3-2.25-1.67-2.11-2.68-4.8-2.68-8.15h-28.89c.1,2.97.53,5.66,1.1,8.15,4.88,19.38,24.73,25.08,44.2,25.08s39.04-6.43,43.53-25.08c.62-2.45.91-5.08.91-7.96,0-4.7-1.77-11.65-7.51-17.12l-.1.05Z"/>
  <path class="cls-2" d="M285.92,218.3c-1.53,1.58-2.92,3.26-3.97,5.13l-.14-5.13-.19-7.53h-29.42v92.8h30.33v-50.6c0-10.22,4.98-19.86,16.41-19.86,14.69,0,15.21,10.17,15.16,21.34v49.16h30.33v-59.57c0-7.53-.77-18.03-6.98-25.71-4.83-5.95-12.87-10.26-26.36-10.26-8.9,0-18.75,3.84-25.11,10.26h-.05v-.05Z"/>
  <path class="cls-2" d="M205.98,257.24c0,9.21-2.68,19.71-10.57,23.88-2.25,1.15-4.88,1.87-7.99,1.87s-5.74-.67-7.94-1.87c-7.8-4.17-10.43-14.68-10.43-23.88v-1.29c.29-11.51,4.78-24.7,18.37-24.7s18.23,13.19,18.51,24.7v1.29h.05ZM230.67,281.12c3.64-7,5.64-15.11,5.64-23.88v-1.29c-.33-15.63-7.03-29.02-17.99-37.65-8.18-6.47-18.8-10.26-30.9-10.26s-22.63,3.79-30.86,10.26c-10.91,8.68-17.51,22.11-17.8,37.65v1.29c0,8.78,1.96,16.88,5.6,23.88,7.85,15.2,23.39,25.08,43.1,25.08s35.3-9.88,43.25-25.08h-.1.05Z"/>
  <rect class="cls-2" x="174.66" y="162.33" width="25.16" height="36.78"/>
  <path class="cls-2" d="M471.29,255.94v47.58h30.33v-47.58c.67-10.98,8.51-20.43,22.77-20.43,4.11,0,7.7.72,11.62,1.77v-27.77c-2.34-.53-4.78-.72-7.13-.72-9.33,0-17.27,3.21-22.67,9.4-2.15,2.45-3.87,5.37-5.12,8.68l-.19-8.68-.14-7.53h-29.42v45.23h.05l-.1.05Z"/>
  <path class="cls-2" d="M542.42,181.27c-.62,1.58-1.48,2.93-2.63,4.12-1.05,1.15-2.44,2.11-3.92,2.69-1.53.67-3.11.96-4.88.96s-3.44-.34-4.93-.96c-1.48-.67-2.77-1.58-3.92-2.69-1.1-1.15-1.96-2.54-2.58-4.08-.67-1.58-.96-3.31-.96-5.23s.29-3.5.96-5.04c.62-1.58,1.48-2.93,2.58-4.08,1.1-1.1,2.44-2.06,3.92-2.69,1.53-.67,3.16-1.01,4.93-1.01s3.35.29,4.88,1.01c1.48.67,2.87,1.58,3.92,2.69,1.1,1.15,1.96,2.49,2.63,4.08.62,1.58.96,3.21.96,5.04s-.29,3.64-.96,5.23v-.05ZM544.63,170.34c-.81-1.77-1.87-3.36-3.21-4.7-1.34-1.34-2.92-2.35-4.69-3.07-1.77-.77-3.68-1.1-5.69-1.1s-3.92.43-5.74,1.1c-1.77.72-3.35,1.77-4.74,3.07-1.39,1.34-2.44,2.93-3.21,4.7-.81,1.77-1.15,3.74-1.15,5.8s.43,4.12,1.15,5.9c.77,1.77,1.82,3.36,3.21,4.7,1.39,1.34,2.97,2.4,4.74,3.12,1.77.72,3.73,1.06,5.74,1.06s3.92-.34,5.69-1.06c1.77-.72,3.35-1.77,4.69-3.12,1.34-1.34,2.39-2.93,3.21-4.7.77-1.77,1.15-3.79,1.15-5.9s-.38-4.03-1.15-5.8Z"/>
  <path class="cls-2" d="M525.63,168.61h7.89c2.63,0,4.26,1.82,4.26,4.03,0,1.73-.67,3.02-2.34,3.69,1.58.48,2.06,1.92,2.15,3.45,0,.91,0,2.64.62,3.45h-3.21c-.34-.91-.34-2.35-.53-3.5-.24-1.53-.81-2.21-2.44-2.21h-3.21v5.71h-3.2v-14.68.05ZM528.84,175.23h3.49c1.48,0,2.2-.62,2.2-2.11s-.77-2.06-2.2-2.06h-3.49v4.17Z"/>
  <path class="cls-1" d="M391.65,239.3c1.44-7.87,6.75-11.65,15.16-11.65,6.27,0,14.59,2.69,14.59,9.64,0,5.71-2.87,7.48-7.99,8.58-21.05,4.27-53.91,1.97-53.91,32.18,0,19.14,13.87,28.06,31.57,28.06,11.1,0,22.63-3.21,30.52-11.41.33,3.07.72,5.9,1.77,8.78h30.47c-3.54-7.34-3.54-15.92-3.54-23.79v-40.62c0-26.28-21.24-31.13-43.15-31.13-10.52,0-21.24,1.77-29.47,6.43-8.18,4.84-13.87,12.71-14.4,24.84h28.37v.1ZM389.83,276.86c0-7.34,5.69-10.22,12.49-11.8,6.6-1.77,14.45-2.35,18.75-4.99.72,19.14-4.11,27.34-18.51,27.34-6.75,0-12.68-3.07-12.68-10.55h-.05Z"/>
  <path class="cls-2" d="M333.07,387.75c.09-7.73,3.47-14.93,9.46-20.14,5.21-4.51,11.02-7.55,15.8-10.59,4.6-3.04,7.9-5.99,7.9-10.07,0-4.77-3.04-7.55-7.81-7.55-7.81,0-10.07,5.64-10.07,12.24h-13.8c-.95-15.02,8.77-25.18,23.79-25.18,11.98,0,22.66,6.25,22.66,19.19,0,11.72-8.33,15.88-17.19,21.44-4.69,2.78-6.94,4.34-10.94,8.16h28.73v12.5h-48.53Z"/>
  <path class="cls-2" d="M385.42,357.46c0-16.23,6.6-30.99,23.7-30.99s24.65,14.76,24.65,30.99-6.94,31.08-24.65,31.08-23.7-14.93-23.7-31.08ZM419.54,357.46c0-7.9-.26-19.01-9.98-19.01s-9.9,11.11-9.9,19.01.52,19.1,9.9,19.1,9.98-11.2,9.98-19.1Z"/>
  <path class="cls-2" d="M436.91,387.75c.09-7.73,3.47-14.93,9.46-20.14,5.21-4.51,11.02-7.55,15.8-10.59,4.6-3.04,7.9-5.99,7.9-10.07,0-4.77-3.04-7.55-7.81-7.55-7.81,0-10.07,5.64-10.07,12.24h-13.8c-.95-15.02,8.77-25.18,23.79-25.18,11.98,0,22.66,6.25,22.66,19.19,0,11.72-8.33,15.88-17.19,21.44-4.69,2.78-6.94,4.34-10.94,8.16h28.73v12.5h-48.53Z"/>
  <path class="cls-2" d="M523.03,342.96c-.61-2.43-1.65-3.73-3.04-4.69-1.39-.78-2.95-.95-4.25-.95-8.42,0-11.81,8.51-12.07,15.36h.17c3.04-4.95,8.33-6.42,14.15-6.42,11.11,0,19.62,8.94,19.62,19.97,0,14.32-11.02,22.31-24.22,22.31-17.8,0-24.13-15.11-24.13-30.64,0-17.02,8.16-31.43,26.48-31.43,10.76,0,19.27,5.47,21.09,16.5h-13.8ZM513.57,376.55c6.16,0,10.24-4.34,10.24-9.29,0-5.64-3.65-10.16-10.33-10.16-5.56,0-9.46,4.51-9.46,10.07,0,5.21,3.73,9.37,9.55,9.37Z"/>
  <g>
    <rect class="cls-2" x="811.6" y="176.58" width="223.23" height="223.23"/>
    <rect class="cls-2" x="811.6" y="176.58" width="223.23" height="223.23"/>
  </g>
</svg>